<?xml version="1.0" encoding="UTF-8"?>
<svg xmlns="http://www.w3.org/2000/svg" width="512px" height="512px" viewBox="0 0 512 512">
  <circle fill="#CE4313" cx="256" cy="256" r="255"></circle>
  <path fill="#fff" d="M330,205.4c-5.2,0.3-10.3,0.9-15.4,1.9c-1.7-10.5-4-20.7-7.1-30.5c-8.5-26.7-26-55.8-57.3-55.2 c-30.1,0.5-51.4,28.6-63.2,53.8c-28,60.2-40.5,128.7-39.5,195.4h36.7c-0.5-38.3,3.7-76.4,13.2-113.7c4-15.8,32.1-119.3,61.5-94.8 c14.5,12.1,17.9,39.5,20.1,57.1v0.1c-30.4,15.5-54.7,42.8-65,76.9c-8.2,27.2-6.7,61.6,14.6,82.4c22.3,21.8,52.5,11,66.1-14.2 c14.5-26.8,19.6-60.8,22-90.9c0.8-9.6,1.1-19.4,1-29.3c4.1-0.9,8.2-1.5,12.3-1.7C353.5,241.1,353.6,203.9,330,205.4z M278.3,289.2 c-1.6,11.1-4.1,22.1-7,32.9c-2.3,8.3-4.6,22-11.1,28.3c-12.7,12.3-14.3-28.7-12.8-36.2c4.3-21.1,16.7-39.6,33.4-52.6 C280.4,270.9,279.6,280.1,278.3,289.2z"></path>
  <path fill="#212121" d="M358.1,369.6c16.2,0,29.4-13.4,29.4-29.9s-13.2-29.9-29.4-29.9s-29.4,13.4-29.4,29.9S341.9,369.6,358.1,369.6z"></path>
</svg>
